{"title":"Jackie Chan Adventures (2000) S01E01 The Dark Hand HDtv Dual Aud","uid":11595449,"size":242469433,"categoryP":"video","categoryS":"movies","magnet":"?xt=urn:btih:05189058b7679ca44edcf4348f7340c02eb30665&amp;dn=Jackie+Chan+Adventures+%282000%29+S01E01+The+Dark+Hand+HDtv+Dual+Aud&amp;tr=udp%3A%2F%2Ftracker.openbittorrent.com%3A80&amp;tr=udp%3A%2F%2Fopen.demonii.com%3A1337&amp;tr=udp%3A%2F%2Ftracker.coppersurfer.tk%3A6969&amp;tr=udp%3A%2F%2Fexodus.desync.com%3A6969","seeders":0,"leechers":2,"uploader":"Xdesiars","files":4,"time":1417278375,"description":"Format                                   : Matroska\nFormat version                           : Version 2\nFile size                                : 220 MiB\nDuration                                 : 19mn 27s\nOverall bit rate                         : 1 581 Kbps\nMovie name                               : Jackie Chan Adventure (2005) S01E01 by XdesiArsenal [ExD-XMR]\nEncoded date                             : UTC 2014-11-29 14:36:32\nWriting application                      : mkvmerge v5.0.1 ('Es ist Sommer') built on Nov 23 2011 20:48:57\nWriting library                          : libebml v1.2.2 + libmatroska v1.3.0\n\nVideo\nID                                       : 1\nFormat                                   : MPEG-4 Visual\nCodec ID                                 : V_MS/VFW/FOURCC / MP42\nCodec ID/Info                            : Microsoft MPEG-4 v2 (pre-standard)\nCodec ID/Hint                            : Microsoft\nDuration                                 : 19mn 27s\nBit rate                                 : 1 165 Kbps\nWidth                                    : 544 pixels\nHeight                                   : 408 pixels\nDisplay aspect ratio                     : 4:3\nFrame rate mode                          : Constant\nFrame rate                               : 25.000 fps\nCompression mode                         : Lossy\nBits/(Pixel*Frame)                       : 0.210\nStream size                              : 162 MiB (74%)\nTitle                                    : Jackie Chan Adventures (2005) S01E01 by XdesiArsenal [ExD-XMR]\nDefault                                  : No\nForced                                   : No\n\nAudio #1\nID                                       : 2\nFormat                                   : AC-3\nFormat/Info                              : Audio Coding 3\nMode extension                           : CM (complete main)\nFormat settings, Endianness              : Big\nMuxing mode                              : Header stripping\nCodec ID                                 : A_AC3\nDuration                                 : 19mn 27s\nBit rate mode                            : Constant\nBit rate                                 : 192 Kbps\nChannel(s)                               : 2 channels\nChannel positions                        : Front: L R\nSampling rate                            : 48.0 KHz\nBit depth                                : 16 bits\nCompression mode                         : Lossy\nStream size                              : 26.7 MiB (12%)\nTitle                                    : XdesiArsenal\nLanguage                                 : English\nDefault                                  : Yes\nForced                                   : No\n\nAudio #2\nID                                       : 3\nFormat                                   : AC-3\nFormat/Info                              : Audio Coding 3\nMode extension                           : CM (complete main)\nFormat settings, Endianness              : Big\nMuxing mode                              : Header stripping\nCodec ID                                 : A_AC3\nDuration                                 : 19mn 27s\nBit rate mode                            : Constant\nBit rate                                 : 192 Kbps\nChannel(s)                               : 2 channels\nChannel positions                        : Front: L R\nSampling rate                            : 48.0 KHz\nBit depth                                : 16 bits\nCompression mode                         : Lossy\nStream size                              : 26.7 MiB (12%)\nTitle                                    : XdesiArsenal\nLanguage                                 : Hindi\nDefault                                  : No\nForced                                   : No","torrent":{"xt":"urn:btih:05189058b7679ca44edcf4348f7340c02eb30665","amp;dn":"Jackie+Chan+Adventures+%282000%29+S01E01+The+Dark+Hand+HDtv+Dual+Aud","amp;tr":["udp%3A%2F%2Ftracker.openbittorrent.com%3A80","udp%3A%2F%2Fopen.demonii.com%3A1337","udp%3A%2F%2Ftracker.coppersurfer.tk%3A6969","udp%3A%2F%2Fexodus.desync.com%3A6969"],"infoHash":"05189058b7679ca44edcf4348f7340c02eb30665","infoHashBuffer":{"type":"Buffer","data":[5,24,144,88,183,103,156,164,78,220,244,52,143,115,64,192,46,179,6,101]},"announce":[],"urlList":[]}}